<svg id="Capa_1" data-name="Capa 1" xmlns="http://www.w3.org/2000/svg" viewBox="0 0 475.08 402"><path d="M436.24,146.75a150.69,150.69,0,0,0,7.72-48,137.31,137.31,0,0,0-14.57-62.25q-30.54,0-54,11.14T322.05,82.22a338.39,338.39,0,0,0-79.94-9.13,379.82,379.82,0,0,0-88.22,10q-30.54-24-54-35.26T45.68,36.54A137.43,137.43,0,0,0,31.12,98.79a154.09,154.09,0,0,0,7.71,48.53Q0,192.73,0,260.38q0,59.4,17.7,94.51a118.66,118.66,0,0,0,24.56,32.83A126.1,126.1,0,0,0,76.8,410.85a300.57,300.57,0,0,0,39.12,14.7,253,253,0,0,0,43.54,8.56q23.83,2.73,42.11,3.58t40.54.85q26.26,0,47.68-1.28a419.42,419.42,0,0,0,49-6.28q27.56-5,48.54-13.56a154.86,154.86,0,0,0,40.26-24.55,115.09,115.09,0,0,0,30.12-38q17.41-35.4,17.41-94.51Q475.08,192.43,436.24,146.75ZM402,354.45q-9.14,18.72-23.12,29.41T344,401a210.19,210.19,0,0,1-40,8.42,413.06,413.06,0,0,1-42.55,2h-48a412.86,412.86,0,0,1-42.54-2A210.19,210.19,0,0,1,131,401q-20.83-6.44-34.83-17.14T73.09,354.45Q64,335.75,64,310.63q0-34.28,19.7-58.24t53.39-24q12.28,0,55.68,6a294.34,294.34,0,0,0,44.82,3.14,294.34,294.34,0,0,0,44.82-3.14q44-6,55.68-6,33.69,0,53.39,24t19.69,58.24Q411.12,335.76,402,354.45Z" transform="translate(0 -36.54)"/><path d="M166.88,265.52q-8.72-9.72-20.7-9.71t-20.71,9.71a56.26,56.26,0,0,0-12.27,21.69,78.57,78.57,0,0,0,0,46.83,56,56,0,0,0,12.27,21.69q8.72,9.72,20.71,9.72t20.7-9.72A56.12,56.12,0,0,0,179.15,334a78.57,78.57,0,0,0,0-46.83A56.33,56.33,0,0,0,166.88,265.52Z" transform="translate(0 -36.54)"/><path d="M349.6,265.52q-8.7-9.72-20.7-9.71t-20.7,9.71a56.26,56.26,0,0,0-12.27,21.69,78.57,78.57,0,0,0,0,46.83,56.12,56.12,0,0,0,12.27,21.69q8.71,9.72,20.7,9.72t20.7-9.72A56.14,56.14,0,0,0,361.88,334a78.57,78.57,0,0,0,0-46.83A56.36,56.36,0,0,0,349.6,265.52Z" transform="translate(0 -36.54)"/></svg>